<svg width="94" height="96" viewBox="0 0 94 96" fill="none" xmlns="http://www.w3.org/2000/svg">
<path fill-rule="evenodd" clip-rule="evenodd" d="M64.386 1.72651C74.2243 -3.41827 86.048 3.53641 86.332 14.635L86.6995 28.9963C86.76 31.3555 87.3761 33.6673 88.4981 35.7435L91.8193 41.8899C96.7152 50.9502 91.2339 62.1363 81.0739 63.8192L77.5507 64.4028C72.689 65.208 68.533 68.3499 66.4326 72.8077L59.7796 86.9279C54.8543 97.3811 40.4561 98.5738 33.878 89.0735L30.2758 83.871C28.2935 81.008 25.3767 78.9239 22.0258 77.9762L10.9237 74.8362C2.34922 72.411 -2.23293 63.0896 1.08384 54.8191L8.02928 37.5002C8.54554 36.2129 8.88078 34.8601 9.02537 33.4807L10.6828 17.6686C11.6557 8.38691 20.7777 2.23732 29.7467 4.81662L42.5098 8.48702C46.2156 9.55272 50.1895 9.15038 53.6065 7.36351L64.386 1.72651Z" fill="#6E84FF"/>
</svg>
